<svg width="21" height="47" viewBox="0 0 21 47" fill="none" xmlns="http://www.w3.org/2000/svg">
<g clip-path="url(#clip0_80_5613)">
<path d="M11.9233 44.8658L10.7252 44.4559C10.7252 44.4559 10.8829 38.3707 8.6758 37.9293C7.22545 36.2267 8.89651 -33.6424 14.1304 37.7086C14.1304 37.7086 12.3332 38.623 12.0179 40.1679C11.6711 41.6813 11.9233 44.8658 11.9233 44.8658Z" fill="white"/>
<path d="M11.9233 44.8658L10.7252 44.4559C10.7252 44.4559 10.8829 38.3707 8.6758 37.9293C7.22545 36.2267 8.89651 -33.6424 14.1304 37.7086C14.1304 37.7086 12.3332 38.623 12.0179 40.1679C11.6711 41.6813 11.9233 44.8658 11.9233 44.8658Z" fill="#A6A385"/>
<path d="M12.5545 39.0009C12.5545 39.0009 22.9908 32.1275 20.563 17.8447C18.1983 7.47153 12.6491 4.06635 12.0501 2.74211C11.3879 1.79623 10.7258 0.188232 10.7258 0.188232L11.1672 29.0692C11.1672 29.1007 10.2529 37.9289 12.5545 39.0009Z" fill="white"/>
<path d="M12.5545 39.0009C12.5545 39.0009 22.9908 32.1275 20.563 17.8447C18.1983 7.47153 12.6491 4.06635 12.0501 2.74211C11.3879 1.79623 10.7258 0.188232 10.7258 0.188232L11.1672 29.0692C11.1672 29.1007 10.2529 37.9289 12.5545 39.0009Z" fill="#499D4A"/>
<path d="M10.0951 39.3797C10.0951 39.3797 0.289441 32.6954 0.85697 20.9034C1.4245 9.11144 8.32944 3.34156 9.6852 2.26956C10.568 1.32368 10.5996 0.976853 10.6311 0.0625C11.2301 1.38673 11.1356 19.6423 11.1986 21.7863C11.5139 30.0785 10.7887 37.8032 10.0951 39.3797Z" fill="white"/>
<path d="M10.0951 39.3797C10.0951 39.3797 0.289441 32.6954 0.85697 20.9034C1.4245 9.11144 8.32944 3.34156 9.6852 2.26956C10.568 1.32368 10.5996 0.976853 10.6311 0.0625C11.2301 1.38673 11.1356 19.6423 11.1986 21.7863C11.5139 30.0785 10.7887 37.8032 10.0951 39.3797Z" fill="#58AA50"/>
</g>
<defs>
<clipPath id="clip0_80_5613">
<rect width="20.0527" height="46.0329" fill="white" transform="translate(0.856201 -0.000244141)"/>
</clipPath>
</defs>
</svg>
