<svg width="90" height="47" viewBox="0 0 90 47" fill="none" xmlns="http://www.w3.org/2000/svg">
<g clip-path="url(#clip0_80_5585)">
<path d="M0.562988 41.8916H3.48945V30.3353L8.02 40.4096C8.55456 41.6291 9.2863 42.0604 10.7213 42.0604C12.1565 42.0604 12.8599 41.6291 13.3947 40.4096L17.925 30.3353V41.8916H20.8517V30.3542C20.8517 29.2287 20.4013 28.6845 19.4728 28.4032C17.2498 27.7091 15.7583 28.3094 15.0829 29.8102L10.6369 39.7529L6.33158 29.8102C5.6844 28.3094 4.16486 27.7091 1.94188 28.4032C1.0132 28.6845 0.562988 29.2287 0.562988 30.3542V41.8916Z" fill="#00618A"/>
<path d="M23.2849 32.4856H26.2105V38.8523C26.1832 39.1982 26.3215 40.0099 27.9247 40.0352C28.7425 40.048 34.2371 40.0352 34.2884 40.0352V32.4546H37.2208C37.2343 32.4546 37.2179 42.7924 37.2181 42.8364C37.2343 45.386 34.0546 45.9397 32.589 45.9826H23.3485V44.0139C23.3647 44.0139 32.5822 44.0157 32.6054 44.0134C34.4889 43.8145 34.2665 42.8783 34.2663 42.5631V41.7956H28.0461C25.1522 41.769 23.3093 40.506 23.2865 39.053C23.2845 38.9183 23.3489 32.5492 23.2849 32.4856Z" fill="#00618A"/>
<path d="M39.4766 41.8918H47.8901C48.875 41.8918 49.8319 41.6855 50.5917 41.3289C51.8578 40.7476 52.477 39.9598 52.477 38.9277V36.7892C52.477 35.9449 51.7735 35.1568 50.3946 34.6318C49.6628 34.3501 48.7625 34.2002 47.8901 34.2002H44.3444C43.1628 34.2002 42.6 33.8438 42.4594 33.056C42.4311 32.9621 42.4311 32.8869 42.4311 32.7932V31.4615C42.4311 31.3862 42.4311 31.311 42.4594 31.2174C42.6 30.6171 42.9097 30.448 43.9506 30.3544C44.0352 30.3544 44.1475 30.3355 44.2321 30.3355H52.5896V28.3848H44.3727C43.1909 28.3848 42.5717 28.4597 42.0091 28.6284C40.2644 29.1726 39.5046 30.0356 39.5046 31.5364V33.2435C39.5046 34.5568 40.9961 35.6824 43.5003 35.9449C43.782 35.9636 44.0632 35.9823 44.3444 35.9823H47.3835C47.4963 35.9823 47.6089 35.9823 47.6932 36.0012C48.6218 36.0764 49.0156 36.245 49.2973 36.5827C49.4659 36.7514 49.5222 36.9205 49.5222 37.108V38.8151C49.5222 39.0216 49.3816 39.2843 49.1004 39.5092C48.847 39.7344 48.425 39.8846 47.8621 39.9222C47.7495 39.9222 47.6652 39.9409 47.5526 39.9409H39.4766V41.8918Z" fill="#E48E00"/>
<path d="M70.7332 38.4963C70.7332 40.5035 72.2244 41.6293 75.2355 41.8544C75.5167 41.8731 75.7984 41.8918 76.0796 41.8918H83.7056V39.9409H76.0233C74.3069 39.9409 73.6597 39.5092 73.6597 38.4776V28.3848H70.7332V38.4963Z" fill="#E48E00"/>
<path d="M54.3445 38.5982V31.6427C54.3445 29.8756 55.5853 28.8039 58.0383 28.4655C58.2921 28.4281 58.5743 28.4092 58.8279 28.4092H64.3829C64.6647 28.4092 64.9188 28.4281 65.2007 28.4655C67.6539 28.8039 68.8945 29.8756 68.8945 31.6427V38.5982C68.8945 40.0318 68.3677 40.7991 67.1533 41.2991L70.036 43.9011H66.638L64.3058 41.7959L61.9579 41.9447H58.8279C58.2921 41.9447 57.7284 41.8693 57.1078 41.7002C55.2469 41.1927 54.3445 40.215 54.3445 38.5982ZM57.5032 38.4291C57.5032 38.5232 57.5312 38.6171 57.5595 38.7299C57.7286 39.5382 58.49 39.9894 59.646 39.9894H62.3048L59.8625 37.7846H63.2605L65.3906 39.7075C65.783 39.4983 66.0414 39.1784 66.1316 38.7675C66.1597 38.6736 66.1597 38.5795 66.1597 38.4856V31.812C66.1597 31.7368 66.1597 31.6427 66.1316 31.5485C65.9623 30.7967 65.201 30.3644 64.0732 30.3644H59.646C58.3491 30.3644 57.5032 30.9285 57.5032 31.812V38.4291Z" fill="#E48E00"/>
<path d="M86.2799 25.1478C84.4809 25.0991 83.1068 25.2663 81.932 25.7618C81.5982 25.9026 81.0658 25.9062 81.0114 26.3246C81.1948 26.517 81.2233 26.8041 81.3692 27.0407C81.6497 27.4946 82.1232 28.1028 82.5457 28.4219C83.0074 28.7703 83.4833 29.1431 83.9782 29.4448C84.8585 29.9817 85.8414 30.2883 86.6891 30.8261C87.1887 31.1431 87.685 31.5423 88.1725 31.9001C88.4133 32.0769 88.5754 32.352 88.8885 32.4627C88.8885 32.4459 88.8885 32.4288 88.8885 32.4117C88.7239 32.2023 88.6816 31.9142 88.5305 31.6954C88.309 31.4739 88.0872 31.2522 87.8655 31.0305C87.2153 30.1675 86.3899 29.4095 85.5126 28.7799C84.813 28.2776 83.2469 27.5992 82.955 26.785C82.9379 26.7679 82.9211 26.7508 82.9037 26.7337C83.3998 26.6779 83.9807 26.4983 84.4385 26.3757C85.2077 26.1694 85.895 26.2228 86.6891 26.0177C87.0472 25.9154 87.4052 25.8128 87.7634 25.7107C87.7634 25.6423 87.7634 25.5744 87.7634 25.5061C87.3619 25.0941 87.0756 24.5489 86.6379 24.1761C85.4925 23.2008 84.2423 22.2263 82.955 21.4138C82.241 20.9631 81.3587 20.6703 80.6021 20.2884C80.3475 20.16 79.9004 20.0932 79.7323 19.8791C79.3348 19.3724 79.1183 18.7301 78.8118 18.1399C78.1696 16.9035 77.5391 15.5531 76.9703 14.2523C76.5822 13.3652 76.3288 12.4904 75.845 11.6946C73.5224 7.87593 71.0222 5.57103 67.1493 3.30552C66.3253 2.82373 65.3331 2.63344 64.2846 2.38486C63.7221 2.35082 63.1593 2.31654 62.5966 2.2825C62.2532 2.13895 61.8959 1.71878 61.5736 1.51516C60.2906 0.704646 56.9997 -1.05835 56.0494 1.25945C55.4494 2.72245 56.9462 4.15009 57.4815 4.89138C57.8573 5.41146 58.3383 5.99453 58.6068 6.57938C58.7834 6.96373 58.8139 7.34917 58.965 7.75597C59.3369 8.75787 59.6603 9.8479 60.1414 10.7739C60.3845 11.2424 60.6525 11.736 60.9599 12.155C61.1484 12.4121 61.4713 12.5253 61.5223 12.9224C61.2065 13.3643 61.1885 14.0504 61.011 14.6104C60.2115 17.1311 60.513 20.2643 61.6759 22.1299C62.0328 22.7026 62.8733 23.9309 64.0289 23.4599C65.0398 23.0481 64.8139 21.7722 65.1031 20.6465C65.1685 20.3912 65.1284 20.2036 65.2565 20.0327C65.2565 20.0496 65.2565 20.0667 65.2565 20.0838C65.5634 20.6976 65.8704 21.3114 66.1774 21.9251C66.8588 23.0226 68.0681 24.1695 69.0929 24.9434C69.6244 25.3447 70.0428 26.0386 70.7298 26.2734C70.7298 26.2563 70.7298 26.2394 70.7298 26.2221C70.7125 26.2221 70.6957 26.2221 70.6786 26.2221C70.5455 26.0145 70.3372 25.9286 70.1672 25.7618C69.7668 25.3693 69.3217 24.8814 68.9906 24.4318C68.0586 23.1664 67.2348 21.7813 66.4843 20.3396C66.1259 19.6512 65.8144 18.8917 65.5122 18.1911C65.3957 17.9209 65.3971 17.5126 65.1544 17.3726C64.8235 17.886 64.3361 18.301 64.0801 18.9072C63.6709 19.8762 63.618 21.0579 63.4664 22.2833C63.3767 22.3154 63.4165 22.2933 63.3639 22.3344C62.6515 22.1625 62.4011 21.4291 62.1365 20.8C61.4667 19.2088 61.3423 16.6466 61.9316 14.8151C62.0841 14.3413 62.7732 12.8487 62.4943 12.411C62.3612 11.9741 61.9218 11.7215 61.6759 11.3877C61.3717 10.9751 61.0679 10.4319 60.8574 9.95539C60.3093 8.71471 60.0534 7.32201 59.4764 6.06798C59.2006 5.46843 58.7342 4.86178 58.3511 4.3288C57.927 3.73839 57.4521 3.30352 57.1235 2.58939C57.0066 2.33569 56.8477 1.92953 57.0211 1.66871C57.0763 1.49267 57.154 1.41924 57.3281 1.36182C57.6248 1.13304 58.4511 1.43793 58.7601 1.56634C59.5805 1.90706 60.2651 2.23152 60.9599 2.69176C61.2936 2.91297 61.6308 3.34069 62.034 3.45909C62.1873 3.45909 62.3409 3.45909 62.4943 3.45909C63.2144 3.62465 64.0211 3.51051 64.6938 3.71478C65.8829 4.07621 66.9485 4.63836 67.9164 5.24946C70.8648 7.11106 73.2753 9.76112 74.9243 12.9224C75.1896 13.4313 75.3044 13.9171 75.538 14.457C76.0095 15.5457 76.6034 16.666 77.0724 17.7307C77.5404 18.7929 77.9967 19.8649 78.6582 20.7488C79.0062 21.2135 80.3496 21.4627 80.9601 21.7207C81.3881 21.9016 82.0893 22.0901 82.4947 22.3344C83.269 22.8015 84.0192 23.3576 84.7455 23.8692C85.1085 24.1249 86.2243 24.6857 86.2799 25.1478Z" fill="#00618A"/>
<path fill-rule="evenodd" clip-rule="evenodd" d="M63.4158 5.65887C63.0407 5.65196 62.7754 5.69982 62.4949 5.76103C62.4949 5.77814 62.4949 5.79528 62.4949 5.81221C62.512 5.81221 62.5291 5.81221 62.5461 5.81221C62.725 6.17984 63.0409 6.41641 63.2622 6.7331C63.4326 7.09118 63.6031 7.44925 63.7738 7.8071C63.7906 7.79017 63.808 7.77306 63.8248 7.75612C64.1416 7.53291 64.2867 7.17574 64.2851 6.63073C64.1582 6.49719 64.1395 6.32963 64.0295 6.17027C63.8832 5.95797 63.6001 5.83735 63.4158 5.65887Z" fill="#00618A"/>
<path fill-rule="evenodd" clip-rule="evenodd" d="M85.0791 39.8845C85.0791 41.173 86.0971 42.0412 87.2358 42.0412C88.3746 42.0412 89.3925 41.173 89.3925 39.8845C89.3925 38.5963 88.3746 37.728 87.2358 37.728C86.0971 37.728 85.0791 38.5963 85.0791 39.8845ZM88.9094 39.8845C88.9094 40.8621 88.1619 41.5927 87.2358 41.5927C86.2985 41.5927 85.5622 40.8621 85.5622 39.8845C85.5622 38.9069 86.2985 38.1763 87.2358 38.1763C88.1619 38.1763 88.9094 38.9069 88.9094 39.8845ZM87.8169 41.1153H88.2998L87.5927 40.0342C87.9721 39.9939 88.2595 39.8098 88.2595 39.3613C88.2595 38.8608 87.9434 38.6539 87.3338 38.6539H86.3733V41.1153H86.7873V40.0513H87.1727L87.8169 41.1153ZM86.7873 39.7063V38.9989H87.2645C87.512 38.9989 87.811 39.045 87.811 39.3326C87.811 39.6774 87.5407 39.7063 87.2301 39.7063H86.7873Z" fill="#E48E00"/>
</g>
<defs>
<clipPath id="clip0_80_5585">
<rect width="89.1034" height="46.0329" fill="white" transform="translate(0.394775 -0.000244141)"/>
</clipPath>
</defs>
</svg>
